<mxfile host="app.diagrams.net" modified="2023-07-30T22:28:49.343Z" agent="Mozilla/5.0 (Windows NT 10.0; Win64; x64) AppleWebKit/537.36 (KHTML, like Gecko) Chrome/115.0.0.0 Safari/537.36" etag="khm5qTAS5EuCCw1oWzUq" version="21.1.8" type="device">
  <diagram name="Page-1" id="SZ3xCQf-LGzlduvP6yZj">
    <mxGraphModel dx="830" dy="451" grid="1" gridSize="10" guides="1" tooltips="1" connect="1" arrows="1" fold="1" page="1" pageScale="1" pageWidth="850" pageHeight="1100" math="0" shadow="0">
      <root>
        <mxCell id="0" />
        <mxCell id="1" parent="0" />
        <mxCell id="2-o-0DMEfL2vV2OfZGBf-4" style="edgeStyle=orthogonalEdgeStyle;rounded=0;orthogonalLoop=1;jettySize=auto;html=1;entryX=0;entryY=0.5;entryDx=0;entryDy=0;entryPerimeter=0;" edge="1" parent="1" source="2-o-0DMEfL2vV2OfZGBf-1" target="2-o-0DMEfL2vV2OfZGBf-2">
          <mxGeometry relative="1" as="geometry" />
        </mxCell>
        <mxCell id="2-o-0DMEfL2vV2OfZGBf-1" value="Player Interacts with NPC" style="strokeWidth=2;html=1;shape=mxgraph.flowchart.terminator;whiteSpace=wrap;" vertex="1" parent="1">
          <mxGeometry x="90" y="50" width="100" height="60" as="geometry" />
        </mxCell>
        <mxCell id="2-o-0DMEfL2vV2OfZGBf-13" style="edgeStyle=orthogonalEdgeStyle;rounded=0;orthogonalLoop=1;jettySize=auto;html=1;exitX=0.5;exitY=1;exitDx=0;exitDy=0;exitPerimeter=0;entryX=0.5;entryY=0;entryDx=0;entryDy=0;" edge="1" parent="1" source="2-o-0DMEfL2vV2OfZGBf-2" target="2-o-0DMEfL2vV2OfZGBf-5">
          <mxGeometry relative="1" as="geometry" />
        </mxCell>
        <mxCell id="2-o-0DMEfL2vV2OfZGBf-14" style="edgeStyle=orthogonalEdgeStyle;rounded=0;orthogonalLoop=1;jettySize=auto;html=1;exitX=0.5;exitY=1;exitDx=0;exitDy=0;exitPerimeter=0;entryX=0.5;entryY=0;entryDx=0;entryDy=0;" edge="1" parent="1" source="2-o-0DMEfL2vV2OfZGBf-2" target="2-o-0DMEfL2vV2OfZGBf-8">
          <mxGeometry relative="1" as="geometry" />
        </mxCell>
        <mxCell id="2-o-0DMEfL2vV2OfZGBf-15" style="edgeStyle=orthogonalEdgeStyle;rounded=0;orthogonalLoop=1;jettySize=auto;html=1;exitX=0.5;exitY=1;exitDx=0;exitDy=0;exitPerimeter=0;entryX=0.5;entryY=0;entryDx=0;entryDy=0;" edge="1" parent="1" source="2-o-0DMEfL2vV2OfZGBf-2" target="2-o-0DMEfL2vV2OfZGBf-9">
          <mxGeometry relative="1" as="geometry" />
        </mxCell>
        <mxCell id="2-o-0DMEfL2vV2OfZGBf-16" style="edgeStyle=orthogonalEdgeStyle;rounded=0;orthogonalLoop=1;jettySize=auto;html=1;exitX=0.5;exitY=1;exitDx=0;exitDy=0;exitPerimeter=0;entryX=0.5;entryY=0;entryDx=0;entryDy=0;" edge="1" parent="1" source="2-o-0DMEfL2vV2OfZGBf-2" target="2-o-0DMEfL2vV2OfZGBf-10">
          <mxGeometry relative="1" as="geometry" />
        </mxCell>
        <mxCell id="2-o-0DMEfL2vV2OfZGBf-17" style="edgeStyle=orthogonalEdgeStyle;rounded=0;orthogonalLoop=1;jettySize=auto;html=1;exitX=0.5;exitY=1;exitDx=0;exitDy=0;exitPerimeter=0;" edge="1" parent="1" source="2-o-0DMEfL2vV2OfZGBf-2" target="2-o-0DMEfL2vV2OfZGBf-11">
          <mxGeometry relative="1" as="geometry" />
        </mxCell>
        <mxCell id="2-o-0DMEfL2vV2OfZGBf-2" value="Classification" style="strokeWidth=2;html=1;shape=mxgraph.flowchart.decision;whiteSpace=wrap;" vertex="1" parent="1">
          <mxGeometry x="260" y="35" width="120" height="90" as="geometry" />
        </mxCell>
        <mxCell id="2-o-0DMEfL2vV2OfZGBf-20" style="edgeStyle=orthogonalEdgeStyle;rounded=0;orthogonalLoop=1;jettySize=auto;html=1;entryX=0.5;entryY=0;entryDx=0;entryDy=0;" edge="1" parent="1" source="2-o-0DMEfL2vV2OfZGBf-5" target="2-o-0DMEfL2vV2OfZGBf-18">
          <mxGeometry relative="1" as="geometry" />
        </mxCell>
        <mxCell id="2-o-0DMEfL2vV2OfZGBf-5" value="Greeting" style="rounded=1;whiteSpace=wrap;html=1;absoluteArcSize=1;arcSize=14;strokeWidth=2;" vertex="1" parent="1">
          <mxGeometry x="40" y="170" width="80" height="60" as="geometry" />
        </mxCell>
        <mxCell id="2-o-0DMEfL2vV2OfZGBf-33" style="edgeStyle=orthogonalEdgeStyle;rounded=0;orthogonalLoop=1;jettySize=auto;html=1;entryX=0.5;entryY=0;entryDx=0;entryDy=0;" edge="1" parent="1" source="2-o-0DMEfL2vV2OfZGBf-8" target="2-o-0DMEfL2vV2OfZGBf-28">
          <mxGeometry relative="1" as="geometry" />
        </mxCell>
        <mxCell id="2-o-0DMEfL2vV2OfZGBf-8" value="Insult" style="rounded=1;whiteSpace=wrap;html=1;absoluteArcSize=1;arcSize=14;strokeWidth=2;" vertex="1" parent="1">
          <mxGeometry x="160" y="170" width="80" height="60" as="geometry" />
        </mxCell>
        <mxCell id="2-o-0DMEfL2vV2OfZGBf-40" style="edgeStyle=orthogonalEdgeStyle;rounded=0;orthogonalLoop=1;jettySize=auto;html=1;entryX=0.5;entryY=0;entryDx=0;entryDy=0;" edge="1" parent="1" source="2-o-0DMEfL2vV2OfZGBf-9" target="2-o-0DMEfL2vV2OfZGBf-38">
          <mxGeometry relative="1" as="geometry" />
        </mxCell>
        <mxCell id="2-o-0DMEfL2vV2OfZGBf-9" value="Statement" style="rounded=1;whiteSpace=wrap;html=1;absoluteArcSize=1;arcSize=14;strokeWidth=2;" vertex="1" parent="1">
          <mxGeometry x="280" y="170" width="80" height="60" as="geometry" />
        </mxCell>
        <mxCell id="2-o-0DMEfL2vV2OfZGBf-68" style="edgeStyle=orthogonalEdgeStyle;rounded=0;orthogonalLoop=1;jettySize=auto;html=1;entryX=0.5;entryY=0;entryDx=0;entryDy=0;" edge="1" parent="1" source="2-o-0DMEfL2vV2OfZGBf-10" target="2-o-0DMEfL2vV2OfZGBf-52">
          <mxGeometry relative="1" as="geometry" />
        </mxCell>
        <mxCell id="2-o-0DMEfL2vV2OfZGBf-10" value="Question" style="rounded=1;whiteSpace=wrap;html=1;absoluteArcSize=1;arcSize=14;strokeWidth=2;" vertex="1" parent="1">
          <mxGeometry x="400" y="170" width="80" height="60" as="geometry" />
        </mxCell>
        <mxCell id="2-o-0DMEfL2vV2OfZGBf-77" style="edgeStyle=orthogonalEdgeStyle;rounded=0;orthogonalLoop=1;jettySize=auto;html=1;" edge="1" parent="1" source="2-o-0DMEfL2vV2OfZGBf-11" target="2-o-0DMEfL2vV2OfZGBf-74">
          <mxGeometry relative="1" as="geometry" />
        </mxCell>
        <mxCell id="2-o-0DMEfL2vV2OfZGBf-11" value="Request" style="rounded=1;whiteSpace=wrap;html=1;absoluteArcSize=1;arcSize=14;strokeWidth=2;" vertex="1" parent="1">
          <mxGeometry x="520" y="170" width="80" height="60" as="geometry" />
        </mxCell>
        <mxCell id="2-o-0DMEfL2vV2OfZGBf-21" style="edgeStyle=orthogonalEdgeStyle;rounded=0;orthogonalLoop=1;jettySize=auto;html=1;" edge="1" parent="1" source="2-o-0DMEfL2vV2OfZGBf-18" target="2-o-0DMEfL2vV2OfZGBf-19">
          <mxGeometry relative="1" as="geometry" />
        </mxCell>
        <mxCell id="2-o-0DMEfL2vV2OfZGBf-18" value="&lt;font style=&quot;font-size: 8px;&quot;&gt;Analyze Appearance against known people&#39;s appearance&lt;/font&gt;" style="rounded=1;whiteSpace=wrap;html=1;absoluteArcSize=1;arcSize=14;strokeWidth=2;" vertex="1" parent="1">
          <mxGeometry x="40" y="250" width="80" height="60" as="geometry" />
        </mxCell>
        <mxCell id="2-o-0DMEfL2vV2OfZGBf-24" style="edgeStyle=orthogonalEdgeStyle;rounded=0;orthogonalLoop=1;jettySize=auto;html=1;entryX=0.5;entryY=0;entryDx=0;entryDy=0;" edge="1" parent="1" source="2-o-0DMEfL2vV2OfZGBf-19" target="2-o-0DMEfL2vV2OfZGBf-22">
          <mxGeometry relative="1" as="geometry" />
        </mxCell>
        <mxCell id="2-o-0DMEfL2vV2OfZGBf-19" value="&lt;span style=&quot;font-size: 8px;&quot;&gt;Analyze disposition towards appearance/ knowledge&lt;/span&gt;" style="rounded=1;whiteSpace=wrap;html=1;absoluteArcSize=1;arcSize=14;strokeWidth=2;" vertex="1" parent="1">
          <mxGeometry x="40" y="330" width="80" height="60" as="geometry" />
        </mxCell>
        <mxCell id="2-o-0DMEfL2vV2OfZGBf-57" style="edgeStyle=orthogonalEdgeStyle;rounded=0;orthogonalLoop=1;jettySize=auto;html=1;" edge="1" parent="1" source="2-o-0DMEfL2vV2OfZGBf-22" target="2-o-0DMEfL2vV2OfZGBf-55">
          <mxGeometry relative="1" as="geometry" />
        </mxCell>
        <mxCell id="2-o-0DMEfL2vV2OfZGBf-22" value="&lt;font style=&quot;font-size: 8px;&quot;&gt;Determine direction of response (ignore, greet, insult, fight)&lt;/font&gt;" style="rounded=1;whiteSpace=wrap;html=1;absoluteArcSize=1;arcSize=14;strokeWidth=2;" vertex="1" parent="1">
          <mxGeometry x="40" y="410" width="80" height="60" as="geometry" />
        </mxCell>
        <mxCell id="2-o-0DMEfL2vV2OfZGBf-103" style="edgeStyle=orthogonalEdgeStyle;rounded=0;orthogonalLoop=1;jettySize=auto;html=1;" edge="1" parent="1" source="2-o-0DMEfL2vV2OfZGBf-23" target="2-o-0DMEfL2vV2OfZGBf-88">
          <mxGeometry relative="1" as="geometry" />
        </mxCell>
        <mxCell id="2-o-0DMEfL2vV2OfZGBf-23" value="&lt;font style=&quot;font-size: 8px;&quot;&gt;Generate Response via LLM&lt;/font&gt;" style="rounded=1;whiteSpace=wrap;html=1;absoluteArcSize=1;arcSize=14;strokeWidth=2;" vertex="1" parent="1">
          <mxGeometry x="40" y="570" width="80" height="60" as="geometry" />
        </mxCell>
        <mxCell id="2-o-0DMEfL2vV2OfZGBf-26" value="Return Response" style="strokeWidth=2;html=1;shape=mxgraph.flowchart.terminator;whiteSpace=wrap;" vertex="1" parent="1">
          <mxGeometry x="40" y="730" width="80" height="40" as="geometry" />
        </mxCell>
        <mxCell id="2-o-0DMEfL2vV2OfZGBf-34" style="edgeStyle=orthogonalEdgeStyle;rounded=0;orthogonalLoop=1;jettySize=auto;html=1;entryX=0.5;entryY=0;entryDx=0;entryDy=0;" edge="1" parent="1" source="2-o-0DMEfL2vV2OfZGBf-28" target="2-o-0DMEfL2vV2OfZGBf-29">
          <mxGeometry relative="1" as="geometry" />
        </mxCell>
        <mxCell id="2-o-0DMEfL2vV2OfZGBf-28" value="&lt;font style=&quot;font-size: 8px;&quot;&gt;Analyze Appearance against known people&#39;s appearance&lt;/font&gt;" style="rounded=1;whiteSpace=wrap;html=1;absoluteArcSize=1;arcSize=14;strokeWidth=2;" vertex="1" parent="1">
          <mxGeometry x="160" y="250" width="80" height="60" as="geometry" />
        </mxCell>
        <mxCell id="2-o-0DMEfL2vV2OfZGBf-35" style="edgeStyle=orthogonalEdgeStyle;rounded=0;orthogonalLoop=1;jettySize=auto;html=1;entryX=0.5;entryY=0;entryDx=0;entryDy=0;" edge="1" parent="1" source="2-o-0DMEfL2vV2OfZGBf-29" target="2-o-0DMEfL2vV2OfZGBf-30">
          <mxGeometry relative="1" as="geometry" />
        </mxCell>
        <mxCell id="2-o-0DMEfL2vV2OfZGBf-29" value="&lt;span style=&quot;font-size: 8px;&quot;&gt;Analyze disposition towards appearance/ knowledge&lt;/span&gt;" style="rounded=1;whiteSpace=wrap;html=1;absoluteArcSize=1;arcSize=14;strokeWidth=2;" vertex="1" parent="1">
          <mxGeometry x="160" y="330" width="80" height="60" as="geometry" />
        </mxCell>
        <mxCell id="2-o-0DMEfL2vV2OfZGBf-58" style="edgeStyle=orthogonalEdgeStyle;rounded=0;orthogonalLoop=1;jettySize=auto;html=1;entryX=0.5;entryY=0;entryDx=0;entryDy=0;" edge="1" parent="1" source="2-o-0DMEfL2vV2OfZGBf-30" target="2-o-0DMEfL2vV2OfZGBf-56">
          <mxGeometry relative="1" as="geometry" />
        </mxCell>
        <mxCell id="2-o-0DMEfL2vV2OfZGBf-30" value="&lt;font style=&quot;font-size: 8px;&quot;&gt;Determine direction of response (ignore, wilt, insult, fight)&lt;/font&gt;" style="rounded=1;whiteSpace=wrap;html=1;absoluteArcSize=1;arcSize=14;strokeWidth=2;" vertex="1" parent="1">
          <mxGeometry x="160" y="410" width="80" height="60" as="geometry" />
        </mxCell>
        <mxCell id="2-o-0DMEfL2vV2OfZGBf-102" style="edgeStyle=orthogonalEdgeStyle;rounded=0;orthogonalLoop=1;jettySize=auto;html=1;" edge="1" parent="1" source="2-o-0DMEfL2vV2OfZGBf-31" target="2-o-0DMEfL2vV2OfZGBf-87">
          <mxGeometry relative="1" as="geometry" />
        </mxCell>
        <mxCell id="2-o-0DMEfL2vV2OfZGBf-31" value="&lt;font style=&quot;font-size: 8px;&quot;&gt;Generate Response via LLM&lt;/font&gt;" style="rounded=1;whiteSpace=wrap;html=1;absoluteArcSize=1;arcSize=14;strokeWidth=2;" vertex="1" parent="1">
          <mxGeometry x="160" y="570" width="80" height="60" as="geometry" />
        </mxCell>
        <mxCell id="2-o-0DMEfL2vV2OfZGBf-32" value="Return Response" style="strokeWidth=2;html=1;shape=mxgraph.flowchart.terminator;whiteSpace=wrap;" vertex="1" parent="1">
          <mxGeometry x="160" y="730" width="80" height="40" as="geometry" />
        </mxCell>
        <mxCell id="2-o-0DMEfL2vV2OfZGBf-41" style="edgeStyle=orthogonalEdgeStyle;rounded=0;orthogonalLoop=1;jettySize=auto;html=1;entryX=0.5;entryY=0;entryDx=0;entryDy=0;" edge="1" parent="1" source="2-o-0DMEfL2vV2OfZGBf-38" target="2-o-0DMEfL2vV2OfZGBf-39">
          <mxGeometry relative="1" as="geometry" />
        </mxCell>
        <mxCell id="2-o-0DMEfL2vV2OfZGBf-38" value="&lt;font style=&quot;font-size: 8px;&quot;&gt;Analyze Appearance against known people&#39;s appearance&lt;/font&gt;" style="rounded=1;whiteSpace=wrap;html=1;absoluteArcSize=1;arcSize=14;strokeWidth=2;" vertex="1" parent="1">
          <mxGeometry x="280" y="250" width="80" height="60" as="geometry" />
        </mxCell>
        <mxCell id="2-o-0DMEfL2vV2OfZGBf-61" style="edgeStyle=orthogonalEdgeStyle;rounded=0;orthogonalLoop=1;jettySize=auto;html=1;entryX=0.5;entryY=0;entryDx=0;entryDy=0;" edge="1" parent="1" source="2-o-0DMEfL2vV2OfZGBf-39" target="2-o-0DMEfL2vV2OfZGBf-46">
          <mxGeometry relative="1" as="geometry" />
        </mxCell>
        <mxCell id="2-o-0DMEfL2vV2OfZGBf-39" value="&lt;span style=&quot;font-size: 8px;&quot;&gt;Analyze disposition towards appearance/ knowledge&lt;/span&gt;" style="rounded=1;whiteSpace=wrap;html=1;absoluteArcSize=1;arcSize=14;strokeWidth=2;" vertex="1" parent="1">
          <mxGeometry x="280" y="330" width="80" height="60" as="geometry" />
        </mxCell>
        <mxCell id="2-o-0DMEfL2vV2OfZGBf-63" style="edgeStyle=orthogonalEdgeStyle;rounded=0;orthogonalLoop=1;jettySize=auto;html=1;entryX=0.5;entryY=0;entryDx=0;entryDy=0;" edge="1" parent="1" source="2-o-0DMEfL2vV2OfZGBf-42" target="2-o-0DMEfL2vV2OfZGBf-47">
          <mxGeometry relative="1" as="geometry" />
        </mxCell>
        <mxCell id="2-o-0DMEfL2vV2OfZGBf-42" value="&lt;span style=&quot;font-size: 8px;&quot;&gt;Add statement to knowledge bank attached to character&lt;/span&gt;" style="rounded=1;whiteSpace=wrap;html=1;absoluteArcSize=1;arcSize=14;strokeWidth=2;" vertex="1" parent="1">
          <mxGeometry x="280" y="490" width="80" height="60" as="geometry" />
        </mxCell>
        <mxCell id="2-o-0DMEfL2vV2OfZGBf-62" style="edgeStyle=orthogonalEdgeStyle;rounded=0;orthogonalLoop=1;jettySize=auto;html=1;" edge="1" parent="1" source="2-o-0DMEfL2vV2OfZGBf-46" target="2-o-0DMEfL2vV2OfZGBf-42">
          <mxGeometry relative="1" as="geometry" />
        </mxCell>
        <mxCell id="2-o-0DMEfL2vV2OfZGBf-46" value="&lt;font style=&quot;font-size: 8px;&quot;&gt;Determine direction of response (ignore, accept, disagree)&lt;/font&gt;" style="rounded=1;whiteSpace=wrap;html=1;absoluteArcSize=1;arcSize=14;strokeWidth=2;" vertex="1" parent="1">
          <mxGeometry x="280" y="410" width="80" height="60" as="geometry" />
        </mxCell>
        <mxCell id="2-o-0DMEfL2vV2OfZGBf-101" style="edgeStyle=orthogonalEdgeStyle;rounded=0;orthogonalLoop=1;jettySize=auto;html=1;entryX=0.5;entryY=0;entryDx=0;entryDy=0;" edge="1" parent="1" source="2-o-0DMEfL2vV2OfZGBf-47" target="2-o-0DMEfL2vV2OfZGBf-86">
          <mxGeometry relative="1" as="geometry" />
        </mxCell>
        <mxCell id="2-o-0DMEfL2vV2OfZGBf-47" value="&lt;font style=&quot;font-size: 8px;&quot;&gt;Generate Response via LLM&lt;/font&gt;" style="rounded=1;whiteSpace=wrap;html=1;absoluteArcSize=1;arcSize=14;strokeWidth=2;" vertex="1" parent="1">
          <mxGeometry x="280" y="570" width="80" height="60" as="geometry" />
        </mxCell>
        <mxCell id="2-o-0DMEfL2vV2OfZGBf-48" value="Return Response" style="strokeWidth=2;html=1;shape=mxgraph.flowchart.terminator;whiteSpace=wrap;" vertex="1" parent="1">
          <mxGeometry x="280" y="730" width="80" height="40" as="geometry" />
        </mxCell>
        <mxCell id="2-o-0DMEfL2vV2OfZGBf-69" style="edgeStyle=orthogonalEdgeStyle;rounded=0;orthogonalLoop=1;jettySize=auto;html=1;" edge="1" parent="1" source="2-o-0DMEfL2vV2OfZGBf-52" target="2-o-0DMEfL2vV2OfZGBf-53">
          <mxGeometry relative="1" as="geometry" />
        </mxCell>
        <mxCell id="2-o-0DMEfL2vV2OfZGBf-52" value="&lt;font style=&quot;font-size: 8px;&quot;&gt;Analyze Appearance against known people&#39;s appearance&lt;/font&gt;" style="rounded=1;whiteSpace=wrap;html=1;absoluteArcSize=1;arcSize=14;strokeWidth=2;" vertex="1" parent="1">
          <mxGeometry x="400" y="250" width="80" height="60" as="geometry" />
        </mxCell>
        <mxCell id="2-o-0DMEfL2vV2OfZGBf-70" style="edgeStyle=orthogonalEdgeStyle;rounded=0;orthogonalLoop=1;jettySize=auto;html=1;entryX=0.5;entryY=0;entryDx=0;entryDy=0;" edge="1" parent="1" source="2-o-0DMEfL2vV2OfZGBf-53" target="2-o-0DMEfL2vV2OfZGBf-65">
          <mxGeometry relative="1" as="geometry" />
        </mxCell>
        <mxCell id="2-o-0DMEfL2vV2OfZGBf-53" value="&lt;span style=&quot;font-size: 8px;&quot;&gt;Analyze disposition towards appearance/ knowledge&lt;/span&gt;" style="rounded=1;whiteSpace=wrap;html=1;absoluteArcSize=1;arcSize=14;strokeWidth=2;" vertex="1" parent="1">
          <mxGeometry x="400" y="330" width="80" height="60" as="geometry" />
        </mxCell>
        <mxCell id="2-o-0DMEfL2vV2OfZGBf-60" style="edgeStyle=orthogonalEdgeStyle;rounded=0;orthogonalLoop=1;jettySize=auto;html=1;" edge="1" parent="1" source="2-o-0DMEfL2vV2OfZGBf-55" target="2-o-0DMEfL2vV2OfZGBf-23">
          <mxGeometry relative="1" as="geometry" />
        </mxCell>
        <mxCell id="2-o-0DMEfL2vV2OfZGBf-55" value="&lt;span style=&quot;font-size: 8px;&quot;&gt;Update disposition in knowledge bank&lt;/span&gt;" style="rounded=1;whiteSpace=wrap;html=1;absoluteArcSize=1;arcSize=14;strokeWidth=2;" vertex="1" parent="1">
          <mxGeometry x="40" y="490" width="80" height="60" as="geometry" />
        </mxCell>
        <mxCell id="2-o-0DMEfL2vV2OfZGBf-59" style="edgeStyle=orthogonalEdgeStyle;rounded=0;orthogonalLoop=1;jettySize=auto;html=1;" edge="1" parent="1" source="2-o-0DMEfL2vV2OfZGBf-56" target="2-o-0DMEfL2vV2OfZGBf-31">
          <mxGeometry relative="1" as="geometry" />
        </mxCell>
        <mxCell id="2-o-0DMEfL2vV2OfZGBf-56" value="&lt;span style=&quot;font-size: 8px;&quot;&gt;Update disposition in knowledge bank&lt;/span&gt;" style="rounded=1;whiteSpace=wrap;html=1;absoluteArcSize=1;arcSize=14;strokeWidth=2;" vertex="1" parent="1">
          <mxGeometry x="160" y="490" width="80" height="60" as="geometry" />
        </mxCell>
        <mxCell id="2-o-0DMEfL2vV2OfZGBf-72" style="edgeStyle=orthogonalEdgeStyle;rounded=0;orthogonalLoop=1;jettySize=auto;html=1;" edge="1" parent="1" source="2-o-0DMEfL2vV2OfZGBf-64" target="2-o-0DMEfL2vV2OfZGBf-66">
          <mxGeometry relative="1" as="geometry" />
        </mxCell>
        <mxCell id="2-o-0DMEfL2vV2OfZGBf-64" value="&lt;span style=&quot;font-size: 8px;&quot;&gt;Check Knowledge bank for relevant information (LLM?)&lt;/span&gt;" style="rounded=1;whiteSpace=wrap;html=1;absoluteArcSize=1;arcSize=14;strokeWidth=2;" vertex="1" parent="1">
          <mxGeometry x="400" y="490" width="80" height="60" as="geometry" />
        </mxCell>
        <mxCell id="2-o-0DMEfL2vV2OfZGBf-71" style="edgeStyle=orthogonalEdgeStyle;rounded=0;orthogonalLoop=1;jettySize=auto;html=1;entryX=0.5;entryY=0;entryDx=0;entryDy=0;" edge="1" parent="1" source="2-o-0DMEfL2vV2OfZGBf-65" target="2-o-0DMEfL2vV2OfZGBf-64">
          <mxGeometry relative="1" as="geometry" />
        </mxCell>
        <mxCell id="2-o-0DMEfL2vV2OfZGBf-65" value="&lt;span style=&quot;font-size: 8px;&quot;&gt;Determine whether to respond, ignore, or lie&lt;/span&gt;" style="rounded=1;whiteSpace=wrap;html=1;absoluteArcSize=1;arcSize=14;strokeWidth=2;" vertex="1" parent="1">
          <mxGeometry x="400" y="410" width="80" height="60" as="geometry" />
        </mxCell>
        <mxCell id="2-o-0DMEfL2vV2OfZGBf-100" style="edgeStyle=orthogonalEdgeStyle;rounded=0;orthogonalLoop=1;jettySize=auto;html=1;" edge="1" parent="1" source="2-o-0DMEfL2vV2OfZGBf-66" target="2-o-0DMEfL2vV2OfZGBf-85">
          <mxGeometry relative="1" as="geometry" />
        </mxCell>
        <mxCell id="2-o-0DMEfL2vV2OfZGBf-66" value="&lt;span style=&quot;font-size: 8px;&quot;&gt;Use LLM to generate desired response to question using info&lt;/span&gt;" style="rounded=1;whiteSpace=wrap;html=1;absoluteArcSize=1;arcSize=14;strokeWidth=2;" vertex="1" parent="1">
          <mxGeometry x="400" y="570" width="80" height="60" as="geometry" />
        </mxCell>
        <mxCell id="2-o-0DMEfL2vV2OfZGBf-67" value="Return Response" style="strokeWidth=2;html=1;shape=mxgraph.flowchart.terminator;whiteSpace=wrap;" vertex="1" parent="1">
          <mxGeometry x="400" y="730" width="80" height="40" as="geometry" />
        </mxCell>
        <mxCell id="2-o-0DMEfL2vV2OfZGBf-78" style="edgeStyle=orthogonalEdgeStyle;rounded=0;orthogonalLoop=1;jettySize=auto;html=1;" edge="1" parent="1" source="2-o-0DMEfL2vV2OfZGBf-74" target="2-o-0DMEfL2vV2OfZGBf-75">
          <mxGeometry relative="1" as="geometry" />
        </mxCell>
        <mxCell id="2-o-0DMEfL2vV2OfZGBf-74" value="&lt;font style=&quot;font-size: 8px;&quot;&gt;Analyze Appearance against known people&#39;s appearance&lt;/font&gt;" style="rounded=1;whiteSpace=wrap;html=1;absoluteArcSize=1;arcSize=14;strokeWidth=2;" vertex="1" parent="1">
          <mxGeometry x="520" y="250" width="80" height="60" as="geometry" />
        </mxCell>
        <mxCell id="2-o-0DMEfL2vV2OfZGBf-93" style="edgeStyle=orthogonalEdgeStyle;rounded=0;orthogonalLoop=1;jettySize=auto;html=1;" edge="1" parent="1" source="2-o-0DMEfL2vV2OfZGBf-75" target="2-o-0DMEfL2vV2OfZGBf-80">
          <mxGeometry relative="1" as="geometry" />
        </mxCell>
        <mxCell id="2-o-0DMEfL2vV2OfZGBf-75" value="&lt;span style=&quot;font-size: 8px;&quot;&gt;Analyze disposition towards appearance/ knowledge&lt;/span&gt;" style="rounded=1;whiteSpace=wrap;html=1;absoluteArcSize=1;arcSize=14;strokeWidth=2;" vertex="1" parent="1">
          <mxGeometry x="520" y="330" width="80" height="60" as="geometry" />
        </mxCell>
        <mxCell id="2-o-0DMEfL2vV2OfZGBf-97" style="edgeStyle=orthogonalEdgeStyle;rounded=0;orthogonalLoop=1;jettySize=auto;html=1;" edge="1" parent="1" source="2-o-0DMEfL2vV2OfZGBf-76" target="2-o-0DMEfL2vV2OfZGBf-90">
          <mxGeometry relative="1" as="geometry" />
        </mxCell>
        <mxCell id="2-o-0DMEfL2vV2OfZGBf-76" value="&lt;span style=&quot;font-size: 8px;&quot;&gt;Determine whether to assist, ignore, decline, or sabotage.&lt;/span&gt;" style="rounded=1;whiteSpace=wrap;html=1;absoluteArcSize=1;arcSize=14;strokeWidth=2;" vertex="1" parent="1">
          <mxGeometry x="520" y="650" width="80" height="60" as="geometry" />
        </mxCell>
        <mxCell id="2-o-0DMEfL2vV2OfZGBf-94" style="edgeStyle=orthogonalEdgeStyle;rounded=0;orthogonalLoop=1;jettySize=auto;html=1;" edge="1" parent="1" source="2-o-0DMEfL2vV2OfZGBf-80" target="2-o-0DMEfL2vV2OfZGBf-83">
          <mxGeometry relative="1" as="geometry" />
        </mxCell>
        <mxCell id="2-o-0DMEfL2vV2OfZGBf-80" value="&lt;span style=&quot;font-size: 8px;&quot;&gt;Check Knowledge bank for relevant information (LLM?)&lt;/span&gt;" style="rounded=1;whiteSpace=wrap;html=1;absoluteArcSize=1;arcSize=14;strokeWidth=2;" vertex="1" parent="1">
          <mxGeometry x="520" y="410" width="80" height="60" as="geometry" />
        </mxCell>
        <mxCell id="2-o-0DMEfL2vV2OfZGBf-95" style="edgeStyle=orthogonalEdgeStyle;rounded=0;orthogonalLoop=1;jettySize=auto;html=1;" edge="1" parent="1" source="2-o-0DMEfL2vV2OfZGBf-83" target="2-o-0DMEfL2vV2OfZGBf-89">
          <mxGeometry relative="1" as="geometry" />
        </mxCell>
        <mxCell id="2-o-0DMEfL2vV2OfZGBf-83" value="&lt;span style=&quot;font-size: 8px;&quot;&gt;Determine tasks necessary to assist&lt;/span&gt;" style="rounded=1;whiteSpace=wrap;html=1;absoluteArcSize=1;arcSize=14;strokeWidth=2;" vertex="1" parent="1">
          <mxGeometry x="520" y="490" width="80" height="60" as="geometry" />
        </mxCell>
        <mxCell id="2-o-0DMEfL2vV2OfZGBf-107" style="edgeStyle=orthogonalEdgeStyle;rounded=0;orthogonalLoop=1;jettySize=auto;html=1;" edge="1" parent="1" source="2-o-0DMEfL2vV2OfZGBf-85" target="2-o-0DMEfL2vV2OfZGBf-67">
          <mxGeometry relative="1" as="geometry" />
        </mxCell>
        <mxCell id="2-o-0DMEfL2vV2OfZGBf-85" value="&lt;span style=&quot;font-size: 8px;&quot;&gt;Update actions NPC will try to do.&lt;/span&gt;" style="rounded=1;whiteSpace=wrap;html=1;absoluteArcSize=1;arcSize=14;strokeWidth=2;" vertex="1" parent="1">
          <mxGeometry x="400" y="650" width="80" height="60" as="geometry" />
        </mxCell>
        <mxCell id="2-o-0DMEfL2vV2OfZGBf-106" style="edgeStyle=orthogonalEdgeStyle;rounded=0;orthogonalLoop=1;jettySize=auto;html=1;" edge="1" parent="1" source="2-o-0DMEfL2vV2OfZGBf-86" target="2-o-0DMEfL2vV2OfZGBf-48">
          <mxGeometry relative="1" as="geometry" />
        </mxCell>
        <mxCell id="2-o-0DMEfL2vV2OfZGBf-86" value="&lt;span style=&quot;font-size: 8px;&quot;&gt;Update actions NPC will try to do.&lt;/span&gt;" style="rounded=1;whiteSpace=wrap;html=1;absoluteArcSize=1;arcSize=14;strokeWidth=2;" vertex="1" parent="1">
          <mxGeometry x="280" y="650" width="80" height="60" as="geometry" />
        </mxCell>
        <mxCell id="2-o-0DMEfL2vV2OfZGBf-105" style="edgeStyle=orthogonalEdgeStyle;rounded=0;orthogonalLoop=1;jettySize=auto;html=1;" edge="1" parent="1" source="2-o-0DMEfL2vV2OfZGBf-87" target="2-o-0DMEfL2vV2OfZGBf-32">
          <mxGeometry relative="1" as="geometry" />
        </mxCell>
        <mxCell id="2-o-0DMEfL2vV2OfZGBf-87" value="&lt;span style=&quot;font-size: 8px;&quot;&gt;Update actions NPC will try to do.&lt;/span&gt;" style="rounded=1;whiteSpace=wrap;html=1;absoluteArcSize=1;arcSize=14;strokeWidth=2;" vertex="1" parent="1">
          <mxGeometry x="160" y="650" width="80" height="60" as="geometry" />
        </mxCell>
        <mxCell id="2-o-0DMEfL2vV2OfZGBf-104" style="edgeStyle=orthogonalEdgeStyle;rounded=0;orthogonalLoop=1;jettySize=auto;html=1;" edge="1" parent="1" source="2-o-0DMEfL2vV2OfZGBf-88" target="2-o-0DMEfL2vV2OfZGBf-26">
          <mxGeometry relative="1" as="geometry" />
        </mxCell>
        <mxCell id="2-o-0DMEfL2vV2OfZGBf-88" value="&lt;span style=&quot;font-size: 8px;&quot;&gt;Update actions NPC will try to do.&lt;/span&gt;" style="rounded=1;whiteSpace=wrap;html=1;absoluteArcSize=1;arcSize=14;strokeWidth=2;" vertex="1" parent="1">
          <mxGeometry x="40" y="650" width="80" height="60" as="geometry" />
        </mxCell>
        <mxCell id="2-o-0DMEfL2vV2OfZGBf-96" style="edgeStyle=orthogonalEdgeStyle;rounded=0;orthogonalLoop=1;jettySize=auto;html=1;" edge="1" parent="1" source="2-o-0DMEfL2vV2OfZGBf-89" target="2-o-0DMEfL2vV2OfZGBf-76">
          <mxGeometry relative="1" as="geometry" />
        </mxCell>
        <mxCell id="2-o-0DMEfL2vV2OfZGBf-89" value="&lt;span style=&quot;font-size: 8px;&quot;&gt;Determine Difficulty of doing those tasks&lt;/span&gt;" style="rounded=1;whiteSpace=wrap;html=1;absoluteArcSize=1;arcSize=14;strokeWidth=2;" vertex="1" parent="1">
          <mxGeometry x="520" y="570" width="80" height="60" as="geometry" />
        </mxCell>
        <mxCell id="2-o-0DMEfL2vV2OfZGBf-98" style="edgeStyle=orthogonalEdgeStyle;rounded=0;orthogonalLoop=1;jettySize=auto;html=1;" edge="1" parent="1" source="2-o-0DMEfL2vV2OfZGBf-90" target="2-o-0DMEfL2vV2OfZGBf-92">
          <mxGeometry relative="1" as="geometry" />
        </mxCell>
        <mxCell id="2-o-0DMEfL2vV2OfZGBf-90" value="&lt;font style=&quot;font-size: 8px;&quot;&gt;Generate Response via LLM&lt;/font&gt;" style="rounded=1;whiteSpace=wrap;html=1;absoluteArcSize=1;arcSize=14;strokeWidth=2;" vertex="1" parent="1">
          <mxGeometry x="520" y="730" width="80" height="60" as="geometry" />
        </mxCell>
        <mxCell id="2-o-0DMEfL2vV2OfZGBf-91" value="Return Response" style="strokeWidth=2;html=1;shape=mxgraph.flowchart.terminator;whiteSpace=wrap;" vertex="1" parent="1">
          <mxGeometry x="520" y="890" width="80" height="40" as="geometry" />
        </mxCell>
        <mxCell id="2-o-0DMEfL2vV2OfZGBf-99" style="edgeStyle=orthogonalEdgeStyle;rounded=0;orthogonalLoop=1;jettySize=auto;html=1;" edge="1" parent="1" source="2-o-0DMEfL2vV2OfZGBf-92" target="2-o-0DMEfL2vV2OfZGBf-91">
          <mxGeometry relative="1" as="geometry" />
        </mxCell>
        <mxCell id="2-o-0DMEfL2vV2OfZGBf-92" value="&lt;span style=&quot;font-size: 8px;&quot;&gt;Update actions NPC will try to do.&lt;/span&gt;" style="rounded=1;whiteSpace=wrap;html=1;absoluteArcSize=1;arcSize=14;strokeWidth=2;" vertex="1" parent="1">
          <mxGeometry x="520" y="810" width="80" height="60" as="geometry" />
        </mxCell>
      </root>
    </mxGraphModel>
  </diagram>
</mxfile>
